<svg aria-hidden="true" style="position: absolute; width: 0; height: 0; overflow: hidden;" version="1.1" xmlns="http://www.w3.org/2000/svg" xmlns:xlink="http://www.w3.org/1999/xlink">
<defs>
<symbol id="icon-phone" viewBox="0 0 32 32">
<path d="M31.884 24.219c-0.217-0.652-0.714-1.166-1.362-1.409l-6.785-2.546c-0.692-0.26-1.415-0.181-2.036 0.22l-2.285 1.48c-0.429 0.278-0.942 0.28-1.374 0.007-1.602-1.013-3.099-2.213-4.448-3.564l-0.001-0.001c-1.352-1.349-2.551-2.846-3.564-4.448-0.273-0.432-0.27-0.945 0.007-1.374l1.48-2.285c0.402-0.621 0.48-1.344 0.22-2.035l-2.546-6.785c-0.243-0.648-0.757-1.145-1.409-1.362s-1.361-0.128-1.945 0.245l-3.552 2.269c-1.798 1.148-2.639 3.231-2.144 5.306 1.374 5.757 4.364 11.040 8.645 15.275 4.239 4.284 9.522 7.275 15.279 8.649 0.386 0.093 0.782 0.14 1.179 0.14 1.654 0 3.197-0.829 4.126-2.284l2.269-3.551c0.373-0.584 0.462-1.293 0.245-1.945zM30.796 25.626l-2.269 3.551c-0.916 1.433-2.577 2.104-4.231 1.71-5.575-1.33-10.693-4.228-14.804-8.383-4.151-4.107-7.049-9.225-8.379-14.8-0.395-1.654 0.276-3.315 1.71-4.231l3.552-2.269c0.211-0.135 0.45-0.204 0.691-0.204 0.134 0 0.269 0.021 0.4 0.065 0.365 0.122 0.652 0.4 0.789 0.765l2.546 6.785c0.148 0.393 0.105 0.788-0.123 1.141l-1.48 2.285c-0.488 0.754-0.493 1.693-0.013 2.452 1.053 1.665 2.299 3.22 3.703 4.621 1.402 1.404 2.956 2.65 4.621 3.703 0.759 0.48 1.698 0.475 2.452-0.013l2.285-1.48c0.353-0.228 0.747-0.271 1.141-0.123l6.785 2.546c0.365 0.137 0.643 0.424 0.765 0.789s0.071 0.762-0.139 1.090z"></path>
</symbol>
<symbol id="icon-close" viewBox="0 0 32 32">
<path d="M16 17.885l7.543 7.543c0.251 0.243 0.588 0.377 0.938 0.374s0.684-0.143 0.931-0.39c0.247-0.247 0.388-0.582 0.39-0.931s-0.131-0.686-0.374-0.938l-7.543-7.543 7.543-7.543c0.243-0.251 0.377-0.588 0.374-0.938s-0.143-0.684-0.39-0.931c-0.247-0.247-0.582-0.387-0.931-0.39s-0.686 0.131-0.938 0.374l-7.543 7.543-7.543-7.543c-0.253-0.237-0.587-0.366-0.934-0.361s-0.677 0.146-0.921 0.391c-0.245 0.245-0.385 0.576-0.39 0.922s0.124 0.681 0.361 0.933l7.541 7.543-7.543 7.543c-0.127 0.123-0.229 0.27-0.299 0.433s-0.107 0.338-0.108 0.515c-0.002 0.177 0.032 0.353 0.099 0.516s0.166 0.313 0.291 0.438c0.125 0.125 0.274 0.224 0.438 0.291s0.339 0.101 0.516 0.099c0.177-0.002 0.352-0.038 0.515-0.108s0.31-0.171 0.433-0.299l7.543-7.543z"></path>
</symbol>
<symbol id="icon-mob-menu" viewBox="0 0 34 32">
<path stroke-linejoin="miter" stroke-linecap="round" stroke-miterlimit="4" stroke-width="1.6842" d="M0.842 6.737h32"></path>
<path stroke-linejoin="miter" stroke-linecap="round" stroke-miterlimit="4" stroke-width="1.6842" d="M0.842 15.158h32"></path>
<path stroke-linejoin="miter" stroke-linecap="round" stroke-miterlimit="4" stroke-width="1.6842" d="M0.842 23.579h32"></path>
</symbol>
<symbol id="icon-geolocation" viewBox="0 0 32 32">
<path d="M16 0c-5.232 0-9.52 4.275-9.52 9.493 0 2.022 0.646 3.901 1.739 5.445l6.62 11.444c0.927 1.211 1.543 0.981 2.314-0.064l7.302-12.426c0.147-0.267 0.263-0.551 0.364-0.841 0.463-1.129 0.702-2.338 0.701-3.558 0-5.218-4.286-9.493-9.519-9.493zM16 4.448c2.818 0 5.059 2.236 5.059 5.045s-2.241 5.044-5.059 5.044c-2.818 0-5.059-2.234-5.059-5.044s2.242-5.045 5.059-5.045v-0z"></path>
<path d="M22.052 15.651l-0.015 0.040c0.005-0.012 0.009-0.025 0.013-0.037l0.002-0.004zM10.882 22.098c-4.52 0.639-7.682 2.167-7.682 4.416 0 3.030 5.283 5.486 12.8 5.486s12.8-2.456 12.8-5.486c0-2.249-3.161-3.777-7.681-4.416l-0.626 1.066c3.407 0.473 5.748 1.466 5.748 2.619 0 1.616-4.585 2.926-10.24 2.926s-10.24-1.31-10.24-2.926c-0-1.149 2.325-2.141 5.742-2.616-0.206-0.356-0.414-0.712-0.62-1.069z"></path>
</symbol>
<symbol id="icon-instagram" viewBox="0 0 32 32">
<path d="M24.5 0h-17c-4.142 0-7.5 3.358-7.5 7.5v17c0 4.142 3.358 7.5 7.5 7.5h17c4.142 0 7.5-3.358 7.5-7.5v-17c0-4.142-3.358-7.5-7.5-7.5z"></path>
<path d="M24.5 0h-17c-4.142 0-7.5 3.358-7.5 7.5v17c0 4.142 3.358 7.5 7.5 7.5h17c4.142 0 7.5-3.358 7.5-7.5v-17c0-4.142-3.358-7.5-7.5-7.5z"></path>
<path d="M16.001 3.5c-3.395 0-3.821 0.015-5.154 0.075-1.331 0.061-2.239 0.272-3.034 0.581-0.822 0.319-1.52 0.746-2.214 1.441s-1.123 1.392-1.443 2.214c-0.31 0.795-0.521 1.704-0.581 3.034-0.060 1.333-0.075 1.76-0.075 5.155s0.015 3.82 0.075 5.153c0.061 1.331 0.272 2.239 0.581 3.034 0.319 0.822 0.747 1.52 1.442 2.214s1.392 1.123 2.214 1.443c0.795 0.309 1.704 0.52 3.034 0.581 1.333 0.061 1.759 0.076 5.154 0.076s3.82-0.015 5.153-0.076c1.331-0.061 2.24-0.272 3.036-0.581 0.822-0.319 1.518-0.747 2.213-1.443s1.122-1.392 1.443-2.214c0.307-0.795 0.518-1.704 0.581-3.034 0.060-1.333 0.076-1.758 0.076-5.153s-0.016-3.821-0.076-5.154c-0.062-1.331-0.274-2.239-0.581-3.034-0.32-0.822-0.747-1.52-1.443-2.215s-1.391-1.122-2.213-1.441c-0.797-0.309-1.706-0.52-3.037-0.581-1.333-0.061-1.758-0.075-5.154-0.075h0.004zM14.88 5.753c0.333-0 0.704 0 1.121 0 3.338 0 3.733 0.012 5.051 0.072 1.219 0.056 1.88 0.259 2.321 0.431 0.583 0.226 0.999 0.497 1.436 0.935s0.708 0.854 0.935 1.438c0.171 0.44 0.375 1.102 0.43 2.32 0.060 1.318 0.073 1.714 0.073 5.050s-0.013 3.732-0.073 5.049c-0.056 1.219-0.259 1.88-0.43 2.32-0.227 0.583-0.498 0.999-0.935 1.436s-0.853 0.708-1.436 0.935c-0.44 0.172-1.102 0.375-2.321 0.431-1.318 0.060-1.714 0.073-5.051 0.073s-3.733-0.013-5.051-0.073c-1.219-0.056-1.88-0.26-2.321-0.431-0.583-0.227-1-0.497-1.438-0.935s-0.708-0.853-0.935-1.437c-0.171-0.44-0.375-1.102-0.431-2.32-0.060-1.318-0.072-1.714-0.072-5.052s0.012-3.732 0.072-5.050c0.056-1.219 0.259-1.88 0.431-2.321 0.227-0.583 0.498-1 0.936-1.438s0.854-0.708 1.437-0.935c0.441-0.172 1.102-0.375 2.321-0.431 1.153-0.052 1.6-0.068 3.93-0.070v0.003zM22.674 7.828c-0.828 0-1.5 0.671-1.5 1.499s0.672 1.5 1.5 1.5c0.828 0 1.5-0.672 1.5-1.5s-0.672-1.5-1.5-1.5v0zM16.001 9.581c-3.545 0-6.419 2.874-6.419 6.419s2.874 6.418 6.419 6.418c3.545 0 6.418-2.873 6.418-6.418s-2.874-6.419-6.419-6.419h0zM16.001 11.833c2.301 0 4.167 1.865 4.167 4.167s-1.866 4.167-4.167 4.167c-2.301 0-4.167-1.866-4.167-4.167s1.865-4.167 4.167-4.167z"></path>
</symbol>
<symbol id="icon-facebook" viewBox="0 0 32 32">
<path d="M32 16c0-8.836-7.164-16-16-16s-16 7.163-16 16c0 7.986 5.851 14.605 13.5 15.806v-11.181h-4.062v-4.625h4.062v-3.525c0-4.010 2.389-6.225 6.043-6.225 1.751 0 3.582 0.313 3.582 0.313v3.937h-2.017c-1.988 0-2.608 1.233-2.608 2.499v3.001h4.438l-0.709 4.625h-3.728v11.181c7.649-1.2 13.5-7.819 13.5-15.806z"></path>
<path d="M22.228 20.625l0.709-4.625h-4.438v-3.001c0-1.265 0.62-2.499 2.608-2.499h2.017v-3.938c0 0-1.831-0.313-3.582-0.313-3.655 0-6.043 2.215-6.043 6.225v3.525h-4.062v4.625h4.062v11.181c0.827 0.13 1.663 0.195 2.5 0.194s1.673-0.065 2.5-0.194v-11.181h3.728z"></path>
</symbol>
<symbol id="icon-telegram" viewBox="0 0 32 32">
<path d="M16 0c-4.242 0-8.315 1.687-11.313 4.686-3.001 3.001-4.687 7.070-4.688 11.314 0 4.242 1.688 8.314 4.688 11.314 2.998 3 7.070 4.686 11.313 4.686s8.315-1.687 11.312-4.686c3-3 4.688-7.072 4.688-11.314s-1.688-8.314-4.688-11.314c-2.998-2.999-7.070-4.686-11.312-4.686z"></path>
<path d="M7.243 15.831c4.665-2.032 7.775-3.372 9.33-4.019 4.445-1.848 5.367-2.169 5.97-2.18 0.132-0.002 0.427 0.031 0.62 0.186 0.16 0.131 0.205 0.309 0.227 0.433 0.020 0.125 0.048 0.408 0.025 0.63-0.24 2.53-1.282 8.67-1.812 11.503-0.223 1.199-0.665 1.601-1.093 1.64-0.93 0.086-1.635-0.614-2.535-1.204-1.408-0.923-2.202-1.498-3.57-2.398-1.58-1.041-0.555-1.613 0.345-2.548 0.235-0.245 4.33-3.968 4.408-4.306 0.010-0.042 0.020-0.2-0.075-0.283-0.093-0.083-0.23-0.055-0.33-0.032-0.143 0.032-2.39 1.519-6.75 4.461-0.638 0.438-1.215 0.652-1.735 0.641-0.57-0.012-1.67-0.323-2.487-0.588-1-0.326-1.798-0.498-1.728-1.051 0.035-0.288 0.433-0.583 1.19-0.884z"></path>
</symbol>
<symbol id="icon-viber" viewBox="0 0 32 32">
<path d="M8 0h16c4.418 0 8 3.582 8 8v16c0 4.418-3.582 8-8 8h-16c-4.418 0-8-3.582-8-8v-16c0-4.418 3.582-8 8-8z"></path>
<path d="M25.294 6.337c-0.628-0.548-3.168-2.297-8.833-2.32 0 0-6.678-0.38-9.93 2.451-1.809 1.715-2.447 4.232-2.516 7.349s-0.153 8.957 5.783 10.541h0.005l-0.005 2.418c0 0-0.040 0.98 0.643 1.176 0.82 0.244 1.305-0.502 2.091-1.303 0.43-0.441 1.023-1.087 1.473-1.58 4.063 0.323 7.182-0.417 7.538-0.525 0.82-0.253 5.462-0.816 6.213-6.655 0.781-6.027-0.376-9.833-2.461-11.553zM25.981 17.45c-0.638 4.874-4.399 5.184-5.091 5.395-0.297 0.089-3.040 0.736-6.485 0.525 0 0-2.57 2.939-3.371 3.703-0.262 0.248-0.549 0.225-0.544-0.267 0-0.323 0.020-4.017 0.020-4.017-0.005 0-0.005 0 0 0-5.032-1.322-4.735-6.295-4.681-8.896s0.573-4.734 2.106-6.168c2.753-2.367 8.422-2.015 8.422-2.015 4.789 0.019 7.083 1.387 7.617 1.847 1.764 1.434 2.664 4.865 2.007 9.894zM19.11 13.663c0.020 0.403-0.618 0.431-0.638 0.028-0.054-1.031-0.563-1.533-1.611-1.589-0.425-0.023-0.386-0.628 0.035-0.605 1.379 0.070 2.145 0.82 2.214 2.165zM20.114 14.192c0.049-1.987-1.26-3.543-3.747-3.717-0.42-0.028-0.376-0.633 0.044-0.605 2.867 0.197 4.394 2.067 4.34 4.335-0.005 0.403-0.648 0.384-0.638-0.014zM22.437 14.82c0.005 0.403-0.638 0.408-0.638 0.005-0.030-3.82-2.714-5.901-5.971-5.924-0.42-0.005-0.42-0.605 0-0.605 3.643 0.023 6.574 2.409 6.608 6.524zM21.878 19.418v0.009c-0.534 0.891-1.532 1.875-2.56 1.561l-0.010-0.014c-1.043-0.277-3.499-1.476-5.051-2.648-0.801-0.6-1.532-1.308-2.096-1.987-0.509-0.605-1.023-1.322-1.522-2.184-1.053-1.804-1.285-2.611-1.285-2.611-0.331-0.975 0.702-1.922 1.646-2.428h0.010c0.455-0.225 0.89-0.15 1.181 0.183 0 0 0.613 0.694 0.875 1.036 0.247 0.319 0.578 0.83 0.751 1.115 0.302 0.511 0.114 1.031-0.183 1.247l-0.593 0.45c-0.302 0.23-0.262 0.656-0.262 0.656s0.88 3.154 4.167 3.951c0 0 0.45 0.038 0.692-0.248l0.475-0.562c0.227-0.281 0.776-0.459 1.315-0.173 0.727 0.389 1.651 0.994 2.264 1.542 0.346 0.267 0.425 0.675 0.188 1.106z"></path>
</symbol>
<symbol id="icon-arrow-left" viewBox="0 0 32 32">
<path d="M16 0c-8.837 0-16 7.163-16 16s7.163 16 16 16c8.837 0 16-7.163 16-16s-7.163-16-16-16z"></path>
<path d="M12.309 15.997l6.523 6.156 0.861-0.814-5.661-5.342 5.661-5.341-0.861-0.812-6.523 6.153z"></path>
</symbol>
<symbol id="icon-arrow-right" viewBox="0 0 32 32">
<path d="M10.652 4.666c-0.174 0.179-0.272 0.418-0.272 0.668s0.098 0.489 0.272 0.668l9.746 9.998-9.746 9.996c-0.174 0.179-0.272 0.418-0.272 0.668s0.098 0.489 0.272 0.668c0.085 0.087 0.186 0.156 0.298 0.204s0.232 0.072 0.354 0.072 0.242-0.024 0.354-0.072c0.112-0.047 0.213-0.116 0.298-0.204l10.364-10.634c0.182-0.187 0.284-0.437 0.284-0.698s-0.102-0.511-0.284-0.698l-10.364-10.634c-0.085-0.087-0.186-0.156-0.298-0.204s-0.232-0.072-0.354-0.072c-0.122 0-0.242 0.024-0.354 0.072s-0.213 0.116-0.298 0.204v-0.002z"></path>
</symbol>
<symbol id="icon-check" viewBox="0 0 33 32">
<path d="M12.784 22.896c-0.105 0.001-0.21-0.020-0.307-0.059s-0.186-0.098-0.261-0.173l-6.032-6.032c-0.149-0.15-0.233-0.353-0.233-0.564s0.084-0.414 0.233-0.564c0.074-0.075 0.163-0.134 0.26-0.175s0.202-0.062 0.308-0.062c0.106 0 0.21 0.021 0.308 0.062s0.186 0.1 0.26 0.175l5.464 5.464 13.312-13.312c0.15-0.149 0.353-0.233 0.564-0.233s0.414 0.084 0.564 0.233c0.075 0.074 0.134 0.163 0.175 0.26s0.062 0.202 0.062 0.308c0 0.106-0.021 0.21-0.062 0.308s-0.1 0.186-0.175 0.26l-13.88 13.872c-0.149 0.148-0.35 0.231-0.56 0.232z"></path>
</symbol>
<symbol id="icon-calendar" viewBox="0 0 32 32">
<path d="M5.858 0.001c-0.070 0.001-0.139 0.016-0.204 0.044s-0.123 0.070-0.171 0.122c-0.049 0.052-0.087 0.114-0.113 0.181s-0.038 0.139-0.037 0.212v1.663h-3.2c-1.173 0-2.133 0.993-2.133 2.206v18.748c0 1.213 0.96 2.206 2.133 2.206h13.082c0.951 3.799 4.284 6.617 8.252 6.617 4.706 0 8.533-3.956 8.533-8.823 0-4.866-3.827-8.823-8.533-8.823-0.363 0-0.717 0.030-1.067 0.075v-10c0-1.213-0.96-2.206-2.133-2.206h-3.2v-1.663c0-0.146-0.056-0.287-0.156-0.39s-0.236-0.161-0.377-0.161c-0.141 0-0.277 0.058-0.377 0.161s-0.156 0.244-0.156 0.39v1.663h-9.6v-1.663c0.001-0.074-0.012-0.147-0.039-0.216s-0.067-0.131-0.117-0.183c-0.051-0.052-0.111-0.093-0.177-0.121s-0.137-0.040-0.209-0.039zM2.133 3.326h3.2v1.656c-0.011 0.746 1.077 0.746 1.067 0v-1.656h9.6v1.656c-0.011 0.746 1.077 0.746 1.067 0v-1.656h3.2c0.601 0 1.067 0.483 1.067 1.103v2.178h-20.267v-2.178c0-0.62 0.466-1.103 1.067-1.103zM1.067 7.766h20.267v6.877c-0.757 0.203-1.472 0.507-2.133 0.904v-0.642c0-0.146-0.056-0.287-0.156-0.39s-0.236-0.161-0.377-0.161h-2.133c-0.141 0-0.277 0.058-0.377 0.161s-0.156 0.244-0.156 0.39v2.206c0 0.146 0.056 0.286 0.156 0.39s0.236 0.162 0.377 0.162h0.279c-1.217 1.562-1.881 3.508-1.879 5.514 0.002 0.369 0.026 0.737 0.073 1.103h-12.873c-0.601 0-1.067-0.482-1.067-1.103v-15.411zM3.733 9.943c-0.141 0-0.277 0.058-0.377 0.161s-0.156 0.244-0.156 0.39v2.206c0 0.146 0.056 0.286 0.156 0.39s0.236 0.162 0.377 0.162h2.133c0.141 0 0.277-0.058 0.377-0.162s0.156-0.244 0.156-0.39v-2.206c0-0.146-0.056-0.287-0.156-0.39s-0.236-0.161-0.377-0.161h-2.133zM8 9.943c-0.141 0-0.277 0.058-0.377 0.161s-0.156 0.244-0.156 0.39v2.206c0 0.146 0.056 0.286 0.156 0.39s0.236 0.162 0.377 0.162h2.133c0.141 0 0.277-0.058 0.377-0.162s0.156-0.244 0.156-0.39v-2.206c0-0.146-0.056-0.287-0.156-0.39s-0.236-0.161-0.377-0.161h-2.133zM12.267 9.943c-0.141 0-0.277 0.058-0.377 0.161s-0.156 0.244-0.156 0.39v2.206c0 0.146 0.056 0.286 0.156 0.39s0.236 0.162 0.377 0.162h2.133c0.141 0 0.277-0.058 0.377-0.162s0.156-0.244 0.156-0.39v-2.206c0-0.146-0.056-0.287-0.156-0.39s-0.236-0.161-0.377-0.161h-2.133zM16.533 9.943c-0.141 0-0.277 0.058-0.377 0.161s-0.156 0.244-0.156 0.39v2.206c0 0.146 0.056 0.286 0.156 0.39s0.236 0.162 0.377 0.162h2.133c0.141 0 0.277-0.058 0.377-0.162s0.156-0.244 0.156-0.39v-2.206c0-0.146-0.056-0.287-0.156-0.39s-0.236-0.161-0.377-0.161h-2.133zM4.267 11.046h1.067v1.103h-1.067v-1.103zM8.533 11.046h1.067v1.103h-1.067v-1.103zM12.8 11.046h1.067v1.103h-1.067v-1.103zM17.067 11.046h1.067v1.103h-1.067v-1.103zM3.733 14.355c-0.141 0-0.277 0.058-0.377 0.161s-0.156 0.244-0.156 0.39v2.206c0 0.146 0.056 0.286 0.156 0.39s0.236 0.162 0.377 0.162h2.133c0.141 0 0.277-0.058 0.377-0.162s0.156-0.244 0.156-0.39v-2.206c0-0.146-0.056-0.287-0.156-0.39s-0.236-0.161-0.377-0.161h-2.133zM8 14.355c-0.141 0-0.277 0.058-0.377 0.161s-0.156 0.244-0.156 0.39v2.206c0 0.146 0.056 0.286 0.156 0.39s0.236 0.162 0.377 0.162h2.133c0.141 0 0.277-0.058 0.377-0.162s0.156-0.244 0.156-0.39v-2.206c0-0.146-0.056-0.287-0.156-0.39s-0.236-0.161-0.377-0.161h-2.133zM12.267 14.355c-0.141 0-0.277 0.058-0.377 0.161s-0.156 0.244-0.156 0.39v2.206c0 0.146 0.056 0.286 0.156 0.39s0.236 0.162 0.377 0.162h2.133c0.141 0 0.277-0.058 0.377-0.162s0.156-0.244 0.156-0.39v-2.206c0-0.146-0.056-0.287-0.156-0.39s-0.236-0.161-0.377-0.161h-2.133zM4.267 15.457h1.067v1.103h-1.067v-1.103zM8.533 15.457h1.067v1.103h-1.067v-1.103zM12.8 15.457h1.067v1.103h-1.067v-1.103zM17.067 15.457h1.067v0.838c-0.102 0.085-0.199 0.175-0.299 0.265h-0.768v-1.103zM23.467 15.457c4.13 0 7.467 3.45 7.467 7.72s-3.337 7.72-7.467 7.72c-4.13 0-7.467-3.45-7.467-7.72s3.337-7.72 7.467-7.72zM22.933 16.56v5.064c-0.618 0.23-1.067 0.839-1.067 1.553 0 0.908 0.722 1.654 1.6 1.654 0.689 0 1.277-0.465 1.5-1.103h2.767v-1.103h-2.767c-0.080-0.23-0.208-0.439-0.375-0.612s-0.369-0.306-0.591-0.389v-5.064h-1.067zM3.733 18.766c-0.141 0-0.277 0.058-0.377 0.161s-0.156 0.244-0.156 0.39v2.206c0 0.146 0.056 0.286 0.156 0.39s0.236 0.162 0.377 0.162h2.133c0.141 0 0.277-0.058 0.377-0.162s0.156-0.244 0.156-0.39v-2.206c0-0.146-0.056-0.287-0.156-0.39s-0.236-0.161-0.377-0.161h-2.133zM8 18.766c-0.141 0-0.277 0.058-0.377 0.161s-0.156 0.244-0.156 0.39v2.206c0 0.146 0.056 0.286 0.156 0.39s0.236 0.162 0.377 0.162h2.133c0.141 0 0.277-0.058 0.377-0.162s0.156-0.244 0.156-0.39v-2.206c0-0.146-0.056-0.287-0.156-0.39s-0.236-0.161-0.377-0.161h-2.133zM12.267 18.766c-0.141 0-0.277 0.058-0.377 0.161s-0.156 0.244-0.156 0.39v2.206c0 0.146 0.056 0.286 0.156 0.39s0.236 0.162 0.377 0.162h2.133c0.141 0 0.277-0.058 0.377-0.162s0.156-0.244 0.156-0.39v-2.206c0-0.146-0.056-0.287-0.156-0.39s-0.236-0.161-0.377-0.161h-2.133zM4.267 19.869h1.067v1.103h-1.067v-1.103zM8.533 19.869h1.067v1.103h-1.067v-1.103zM12.8 19.869h1.067v1.103h-1.067v-1.103zM23.467 22.626c0.301 0 0.533 0.24 0.533 0.551s-0.233 0.551-0.533 0.551c-0.070 0.001-0.14-0.012-0.205-0.040s-0.124-0.068-0.174-0.119c-0.050-0.051-0.089-0.113-0.115-0.18s-0.040-0.139-0.039-0.212c0-0.311 0.233-0.551 0.533-0.551z"></path>
</symbol>
<symbol id="icon-instruments" viewBox="0 0 32 32">
<path d="M26.908 12.512c0.233 0.116 0.465 0 0.582-0.116l4.305-4.282c0.116-0.116 0.116-0.231 0.116-0.463s-0.116-0.347-0.116-0.463l-1.629-1.62c-0.233-0.231-0.582-0.231-0.814 0l-3.026 3.125-2.56-0.694-0.814-2.662 3.025-3.009c0.233-0.231 0.233-0.579 0-0.81l-1.629-1.62c-0.233-0.231-0.582-0.231-0.815 0l-4.305 4.282c-0.116 0.116-0.233 0.347-0.116 0.579l0.931 3.472-4.655 4.629-8.262-8.217c0-0.231 0.116-0.463 0.116-0.694 0-0.463-0.233-0.926-0.465-1.273l-2.56-2.43c-0.116-0.116-0.233-0.231-0.349-0.231s-0.349 0.116-0.465 0.231l-3.258 3.24c-0.116 0.116-0.116 0.231-0.116 0.463s0 0.231 0.116 0.347l2.444 2.43c0.349 0.347 0.815 0.463 1.28 0.463 0.233 0 0.465-0.116 0.698-0.231l8.378 8.333-4.538 4.514-3.491-0.926c-0.233 0-0.465 0-0.582 0.116l-4.305 4.282c-0.116 0.116-0.116 0.231-0.116 0.463s0.116 0.347 0.116 0.463l1.629 1.62c0.233 0.231 0.582 0.231 0.815 0l2.909-3.009 2.56 0.694 0.815 2.662-3.025 3.009c-0.233 0.231-0.233 0.579 0 0.81l1.629 1.62c0.116 0.116 0.233 0.116 0.465 0.116s0.349 0 0.465-0.116l4.305-4.282c0.116-0.116 0.233-0.347 0.116-0.579l-0.931-3.472 2.909-2.893 1.164 1.157c0.116 0.116 0.233 0.116 0.465 0.116s0.349 0 0.465-0.116c0.233-0.231 0.582-0.231 0.815 0 0.116 0.116 0.116 0.231 0.116 0.463 0 0.116-0.116 0.347-0.116 0.347s-0.116 0.116-0.116 0.231v0.463c0 0.116 0.116 0.116 0.116 0.231l7.447 7.407c0.582 0.579 1.28 0.81 2.095 0.81s1.513-0.231 2.095-0.81l1.629-1.62c0.582-0.579 0.815-1.273 0.815-2.083s-0.349-1.505-0.815-2.083l-7.447-7.407c-0.233-0.231-0.582-0.231-0.815 0s-0.582 0.231-0.815 0c-0.233-0.231-0.233-0.579 0-0.81 0.116-0.116 0.116-0.231 0.116-0.463s0-0.347-0.116-0.463l-1.164-1.157 3.025-3.009 3.258 0.926zM30.283 26.863c0 0.463-0.233 0.926-0.465 1.273l-1.745 1.505c-0.698 0.694-1.745 0.694-2.444 0l-6.982-6.944 4.189-4.166 6.982 6.944c0.233 0.463 0.465 0.926 0.465 1.389zM3.403 5.915l-1.978-1.967 2.444-2.43 2.095 2.083c0.116 0.116 0.116 0.231 0.116 0.463 0 0.116-0.116 0.347-0.116 0.463l-1.745 1.389c-0.233 0.231-0.582 0.231-0.815 0zM6.312 5.568l10.705 10.647-0.815 0.81-10.705-10.647 0.815-0.81zM10.384 23.159l0.931 3.472-3.607 3.703-0.815-0.81 2.793-2.778c0.116-0.116 0.233-0.347 0.116-0.579l-0.815-3.241c0-0.231-0.233-0.347-0.465-0.463l-3.142-0.81c-0.233 0-0.465 0-0.582 0.116l-2.793 2.778-0.815-0.694 3.724-3.703 3.491 0.926c0.233 0 0.466 0 0.582-0.116l4.771-4.745 1.629 1.62-1.28 1.273c0 0 0 0.116-0.116 0.116l-3.491 3.472c-0.116 0.116-0.116 0.347-0.116 0.463zM20.741 18.183c0.116 0.116 0.349 0.231 0.465 0.347l-2.56 2.546c-0.116-0.231-0.233-0.347-0.349-0.463s-0.349-0.231-0.465-0.347l2.56-2.546c0.116 0.231 0.233 0.347 0.349 0.463zM20.275 16.215l-4.073 4.051-0.815-0.81 4.073-4.051 0.815 0.81zM22.719 10.544l-3.607 3.588c0 0-0.116 0-0.116 0.116l-1.28 1.273-1.629-1.62 4.887-4.861c0.116-0.116 0.233-0.347 0.116-0.579l-0.931-3.472 3.84-3.819 0.815 0.81-2.793 2.778c-0.116 0.116-0.233 0.347-0.116 0.579l0.815 3.241c0 0.231 0.233 0.347 0.465 0.463l3.258 0.81c0.233 0 0.465 0 0.582-0.116l2.793-2.778 0.698 0.694-3.724 3.703-3.491-0.926c-0.116-0.116-0.349-0.116-0.582 0.116z"></path>
</symbol>
<symbol id="icon-note" viewBox="0 0 32 32">
<path d="M4 2v29.627h13.104v-1.185h-11.793v-27.257h18.349v4.153c0 0.157 0.069 0.308 0.192 0.419s0.29 0.174 0.463 0.174h4.587v11.346h1.311v-11.901h-0.003c0.006-0.084-0.007-0.168-0.040-0.247s-0.083-0.151-0.149-0.21l-5.242-4.74c-0.062-0.056-0.136-0.1-0.218-0.13s-0.169-0.044-0.257-0.043c-0.066 0-0.131 0.009-0.194 0.027v-0.032h-20.11zM24.97 4.027l3.005 2.719h-3.005v-2.719zM7.891 5.559h14.457v1.185h-14.457v-1.185zM8.001 9.117h18.279v1.185h-18.279v-1.185zM7.932 12.672h18.349v1.185h-18.349v-1.185zM7.932 16.227h18.349v1.185h-18.349v-1.185zM7.932 19.782h18.349v1.185h-18.349v-1.185zM28.064 20.373c-0.174 0-0.34 0.062-0.463 0.174s-0.192 0.262-0.192 0.419v1.824c-0 0.004-0 0.008 0 0.012 0 0.095-0.087 0.315-0.317 0.595-0.229 0.278-0.571 0.604-0.931 0.947-0.518 0.491-1.109 1.017-1.409 1.666h-1.093v-1.8c0-0.157-0.069-0.308-0.192-0.419s-0.29-0.174-0.463-0.174h-3.932c-0.174 0-0.34 0.062-0.463 0.174s-0.192 0.262-0.192 0.419v9.199c0 0.157 0.069 0.308 0.192 0.419s0.29 0.174 0.463 0.174h3.932c0.174 0 0.34-0.062 0.463-0.174s0.192-0.262 0.192-0.419v-0.815h0.889l-0.105-0.182-0.024-0.044c0.042 0.092 0.094 0.177 0.151 0.255 0.001 0 0.002 0 0.003 0 0.062 0.083 0.128 0.158 0.197 0.222 0.003 0.004 0.006 0.008 0.009 0.012 0.151 0.136 0.329 0.246 0.524 0.322 0.105 0.040 0.212 0.073 0.322 0.092 0.017 0.005 0.035 0.009 0.052 0.012 0.033 0 0.128 0.024 0.28 0.024h6.609c0.037 0 0.074-0.003 0.11-0.008h0.819c0.894 0 1.464-0.756 1.464-1.52 0-0.23-0.066-0.452-0.161-0.66 0.408-0.282 0.682-0.723 0.682-1.217 0-0.248-0.083-0.478-0.197-0.692 0.422-0.279 0.716-0.707 0.716-1.21 0-0.36-0.16-0.681-0.393-0.945 0.232-0.261 0.393-0.578 0.393-0.936-0.003-0.402-0.182-0.787-0.497-1.070s-0.74-0.444-1.185-0.446h-2.626c-0.189 0.001-0.376 0.031-0.553 0.090-0.085-0.258-0.199-0.508-0.338-0.747v-1.288c0-1.28-1.232-2.278-2.678-2.278h-0.059v-0.004zM28.72 21.762c0.438 0.186 0.771 0.484 0.771 0.894v1.377c-0 0.037 0.003 0.073 0.011 0.109l0.011 0.036c0.013 0.065 0.038 0.128 0.073 0.186 0.477 0.754 0.562 1.833 0.195 2.693-0.367 0.858-1.050 1.305-1.713 1.305h-2.861c-0.174 0-0.34 0.062-0.463 0.174s-0.192 0.262-0.192 0.419 0.069 0.308 0.192 0.419c0.123 0.111 0.29 0.174 0.463 0.174h2.861c0.672 0 1.292-0.233 1.809-0.62l0.001 0.002c-0.236 0.27-0.387 0.61-0.387 0.972 0 0.338 0.139 0.651 0.346 0.913-0.215 0.274-0.346 0.615-0.346 0.965 0 0.117 0.035 0.229 0.062 0.344h-3.594c0.008 0-0.046 0-0.079-0.012-0.022 0-0.039-0.012-0.055-0.017-0.024-0.012-0.046-0.020-0.063-0.031-0.036-0.025-0.068-0.053-0.096-0.085-0.014-0.018-0.026-0.038-0.035-0.058-0.007-0.015-0.015-0.029-0.024-0.044l-0.079-0.139c-0.055-0.096-0.139-0.177-0.241-0.234s-0.22-0.086-0.341-0.086h-1.287v-4.221h1.016c0.082 0.102 0.197 0.178 0.329 0.216s0.275 0.038 0.407-0.001 0.247-0.116 0.328-0.218c0.081-0.102 0.124-0.225 0.122-0.351 0-0.341 0.539-1.007 1.249-1.683 0.354-0.338 0.727-0.683 1.034-1.055 0.194-0.237 0.261-0.542 0.367-0.827 0.065-0.055 0.117-0.121 0.154-0.194s0.055-0.153 0.056-0.233l-0.001-1.086zM7.932 23.336h9.319v1.185h-9.319v-1.185zM19.727 24.801h2.621v8.014h-2.621v-8.014zM31.692 25.783h2.626c0.049-0.002 0.098 0.005 0.144 0.021s0.088 0.041 0.123 0.072c0.035 0.031 0.062 0.069 0.080 0.111s0.026 0.086 0.024 0.131c0.002 0.045-0.006 0.089-0.024 0.131s-0.045 0.079-0.080 0.111c-0.035 0.032-0.077 0.056-0.122 0.072s-0.095 0.024-0.144 0.022h-2.626c-0.049 0.002-0.098-0.006-0.144-0.022s-0.088-0.041-0.122-0.072c-0.035-0.032-0.062-0.069-0.080-0.111s-0.026-0.086-0.024-0.131c-0.002-0.045 0.006-0.089 0.024-0.131s0.045-0.079 0.080-0.111c0.035-0.031 0.077-0.056 0.123-0.072s0.095-0.023 0.144-0.021zM31.157 27.66h3.177c0.203 0 0.355 0.135 0.355 0.337 0 0.199-0.152 0.335-0.355 0.335h-3.178c-0.203 0-0.357-0.136-0.357-0.335 0-0.201 0.153-0.337 0.357-0.337h0.001zM31.058 29.563h2.858c0.107 0 0.254 0.104 0.254 0.335s-0.147 0.333-0.254 0.333h-2.858c-0.109 0-0.257-0.101-0.257-0.333 0-0.231 0.148-0.335 0.257-0.335zM20.992 30.445c0.015-0.001 0.031-0.001 0.046 0 0.174 0 0.34 0.062 0.463 0.174s0.192 0.262 0.192 0.419c0 0.157-0.069 0.308-0.192 0.419s-0.29 0.174-0.463 0.174c-0.174 0-0.34-0.062-0.463-0.174s-0.192-0.262-0.192-0.419c-0-0.15 0.062-0.295 0.175-0.405s0.268-0.177 0.434-0.188zM30.954 31.44h2.543c0.001 0 0.153 0.072 0.153 0.335s-0.152 0.335-0.153 0.335h-2.543c-0.001 0-0.153-0.072-0.153-0.335s0.152-0.335 0.153-0.335z"></path>
</symbol>
<symbol id="icon-man" viewBox="0 0 31 32">
<path d="M17.979 0l-0.032 0.465c-0.015 0.222-0.132 0.385-0.359 0.535-0.258 0.158-0.554 0.251-0.861 0.27h-2.81c-1.87 0-3.388 1.433-3.388 3.193v2.396c0 0.067 0.002 0.085 0.002 0.028 0-0.034-0.002-0.039-0.002 0.031v1.047c-0.002 0.025-0.002 0.049 0 0.074v2.111c0 1.32 0.526 2.514 1.367 3.448v0.82l-3.215-3.014c0.503-1.467 0.209-3.083-0.971-4.19-0.411-0.385-0.898-0.69-1.435-0.897s-1.112-0.314-1.692-0.313v-0.002c-0.58-0.001-1.155 0.105-1.692 0.313s-1.024 0.513-1.434 0.897c-0.827 0.778-1.292 1.832-1.292 2.931s0.465 2.153 1.292 2.931c1.18 1.104 2.904 1.38 4.467 0.908l3.738 3.504-3.804 2.035c-0.757 0.402-1.387 0.986-1.825 1.69s-0.67 1.506-0.671 2.321v8.468h25.602v-8.468c0-1.657-0.953-3.19-2.494-4.012h-0.002l-3.813-2.040 3.784-3.55c1.554 0.469 3.269 0.192 4.44-0.906 0.572-0.537 0.975-1.211 1.165-1.949s0.158-1.51-0.091-2.232c-0.028-0.082-0.078-0.155-0.145-0.213s-0.149-0.099-0.238-0.12c-0.089-0.020-0.182-0.018-0.27 0.005s-0.168 0.067-0.233 0.128l-2.498 2.342-1.554-0.162-0.171-1.457 2.494-2.338c0.065-0.061 0.112-0.136 0.137-0.218s0.027-0.17 0.005-0.253c-0.021-0.083-0.065-0.16-0.128-0.223s-0.141-0.11-0.228-0.136c-0.769-0.233-1.593-0.263-2.379-0.086v0.002c-0.787 0.176-1.507 0.553-2.080 1.088-1.168 1.098-1.46 2.703-0.962 4.158l-3.273 3.069v-0.744c0.927-0.973 1.441-2.231 1.444-3.536v-3.232c0-0.055-0.002-0.050-0.002-0.025 0 0.020 0.002 0.032 0.002-0.028v-3.543l-0.006-0.031c-0.126-0.898-0.419-1.708-0.979-2.316-0.56-0.609-1.4-0.976-2.411-0.971v-0.004h-0.498zM18.671 1.074c0.608 0.044 1.082 0.195 1.408 0.549 0.368 0.4 0.619 1.018 0.728 1.783v3.455c0-0.052-0.002-0.040-0.002 0.022 0 0.010 0.001 0.021 0.002 0.031v0.287c-0.297-0.157-0.619-0.267-0.955-0.326-0.745-0.128-1.518-0.072-2.263-0.043s-1.457 0.033-2.042-0.117c-0.585-0.15-1.048-0.42-1.434-1.045-0.049-0.080-0.121-0.145-0.208-0.189s-0.184-0.064-0.283-0.059c-0.112 0.006-0.22 0.044-0.307 0.111s-0.15 0.157-0.179 0.258c0.014-0.047-0.091 0.158-0.269 0.355-0.211 0.228-0.438 0.443-0.68 0.643-0.203 0.168-0.402 0.305-0.593 0.43v-0.305c0 0.055 0.001 0.037 0.002-0.027 0-0.077-0.002-0.072-0.002-0.028v-2.396c0-1.227 1.028-2.193 2.321-2.193h2.881c0.484-0.030 0.982-0.174 1.404-0.452 0.243-0.16 0.32-0.48 0.469-0.744zM13.72 6.732c0.459 0.456 0.978 0.8 1.547 0.946 0.792 0.204 1.607 0.184 2.368 0.154s1.474-0.067 2.025 0.027c0.516 0.088 0.865 0.256 1.147 0.66v1.627c0 2.422-2.048 4.352-4.605 4.352s-4.606-1.93-4.606-4.352v-1.75c0.139-0.060 0.27-0.135 0.411-0.218 0.296-0.175 0.601-0.399 0.891-0.64 0.291-0.243 0.563-0.501 0.784-0.745 0.018-0.020 0.021-0.043 0.039-0.061zM4.584 6.996c0.857 0 1.713 0.31 2.37 0.926 0.478 0.447 0.8 1.019 0.925 1.641s0.046 1.265-0.225 1.844c-0.043 0.092-0.055 0.194-0.035 0.293s0.071 0.189 0.146 0.26l4.129 3.871v0.459l-0.896 0.479c-0.072 0.021-0.139 0.056-0.195 0.103l-0.181 0.098-4.105-3.846c-0.076-0.071-0.173-0.12-0.279-0.138s-0.215-0.007-0.313 0.033c-0.617 0.254-1.302 0.328-1.965 0.211s-1.272-0.418-1.75-0.864h-0.002c-0.312-0.292-0.559-0.638-0.728-1.019s-0.256-0.79-0.255-1.203 0.087-0.822 0.257-1.203c0.169-0.381 0.417-0.728 0.729-1.019 0.311-0.293 0.681-0.526 1.088-0.685s0.844-0.241 1.285-0.241zM27.74 7.111l-1.835 1.72c-0.057 0.053-0.1 0.118-0.127 0.189s-0.036 0.147-0.027 0.221l0.249 2.091c0.014 0.113 0.067 0.218 0.153 0.298s0.197 0.131 0.318 0.143l2.234 0.233c0.079 0.008 0.16-0 0.235-0.025s0.144-0.065 0.2-0.118l1.835-1.72c-0.009 0.802-0.226 1.589-0.851 2.175-0.473 0.444-1.079 0.744-1.737 0.86s-1.338 0.043-1.951-0.21c-0.099-0.040-0.208-0.052-0.314-0.033s-0.203 0.067-0.279 0.139l-4.15 3.893-1.265-0.676v-0.447l4.188-3.926c0.076-0.071 0.128-0.162 0.148-0.261s0.008-0.201-0.036-0.294c-0.269-0.574-0.347-1.21-0.224-1.826s0.442-1.183 0.914-1.627c0.626-0.585 1.465-0.79 2.321-0.799zM5.173 7.648c-0.044 0.001-0.088 0.007-0.131 0.018l-2.127 0.557c-0.090 0.024-0.173 0.069-0.24 0.132s-0.115 0.14-0.141 0.225l-0.592 1.994c-0.025 0.085-0.026 0.174-0.003 0.258s0.069 0.161 0.134 0.222l1.534 1.44c0.066 0.061 0.148 0.105 0.238 0.127s0.186 0.020 0.276-0.004l2.127-0.556c0.070-0.018 0.135-0.048 0.193-0.090s0.105-0.094 0.141-0.153c0.021-0.036 0.038-0.075 0.049-0.115l0.59-1.994c0.025-0.085 0.026-0.174 0.003-0.258s-0.069-0.161-0.134-0.222l-1.533-1.44c-0.050-0.046-0.11-0.083-0.176-0.107s-0.137-0.035-0.208-0.033v-0.001zM5.011 8.706l1.102 1.035-0.425 1.434-1.534 0.4-1.104-1.035 0.427-1.434 1.534-0.4zM12.962 14.534c0.933 0.62 2.047 0.957 3.19 0.968s2.264-0.307 3.21-0.909v0.908c0 0.316-0.251 0.673-0.825 0.98-0.575 0.308-1.427 0.52-2.376 0.52-0.949 0-1.801-0.212-2.376-0.52-0.574-0.307-0.825-0.664-0.825-0.98v-0.967zM12.722 16.999c0.163 0.13 0.344 0.247 0.536 0.35 0.778 0.416 1.792 0.652 2.905 0.652 1.114 0 2.127-0.236 2.905-0.652 0.192-0.103 0.373-0.22 0.536-0.35l0.873 0.467-1.744 6.535h-5.216l-1.733-6.498 0.941-0.504zM21.437 17.981l1.838 0.983-1.844 6.916c-0 0.005-0.001 0.009-0.001 0.014-0.151 0.643-0.594 1.107-1.186 1.107-0.613 0-1.035-0.353-0.962-0.934l2.156-8.085zM10.817 18.019l2.146 8.048c0.073 0.58-0.349 0.934-0.962 0.934-0.592 0-1.035-0.464-1.186-1.107-0.001-0.005-0.001-0.011-0.002-0.016l-1.833-6.877 1.837-0.982zM24.239 19.479l1.7 0.91c0.594 0.315 1.087 0.772 1.431 1.324s0.525 1.18 0.525 1.819v7.469h-3.2v-6.5c0-0.133-0.056-0.26-0.156-0.354s-0.236-0.146-0.377-0.146h-1.13l1.206-4.522zM8.015 19.517l1.196 4.484h-1.050c-0.141 0-0.277 0.053-0.377 0.146s-0.156 0.221-0.156 0.354v6.5h-3.2v-7.469c0-1.299 0.745-2.497 1.956-3.142h0.002l1.629-0.873zM11.788 24.998c-0.141 0-0.277 0.053-0.377 0.146s-0.156 0.221-0.156 0.354c0 0.133 0.056 0.26 0.156 0.354s0.236 0.146 0.377 0.146 0.277-0.053 0.377-0.146c0.1-0.094 0.156-0.221 0.156-0.354s-0.056-0.26-0.156-0.354c-0.1-0.094-0.236-0.146-0.377-0.146zM20.456 24.998c-0.141 0-0.277 0.053-0.377 0.146s-0.156 0.221-0.156 0.354c0 0.133 0.056 0.26 0.156 0.354s0.236 0.146 0.377 0.146c0.141 0 0.277-0.053 0.377-0.146s0.156-0.221 0.156-0.354c0-0.133-0.056-0.26-0.156-0.354s-0.236-0.146-0.377-0.146zM8.694 25h0.783l0.297 1.107c0.23 0.98 1.046 1.891 2.227 1.891 1.156 0 2.174-0.912 2.023-2.063-0.002-0.020-0.006-0.040-0.011-0.060l-0.233-0.875h4.683l-0.233 0.879c-0.005 0.019-0.008 0.038-0.011 0.058-0.151 1.151 0.866 2.063 2.023 2.063 1.181 0 1.997-0.912 2.227-1.89l0.295-1.11h0.863v6h-14.935v-6z"></path>
</symbol>
<symbol id="icon-logo" viewBox="0 0 120 32">
<path fill="#fff" style="fill: var(--color1, #fff)" d="M1.196 24.185c-0.145-0.269 1.224-1.778 2.225-2.757 1.224-1.192 3.438-3.088 10.569-6.203 1.719-0.751 2.581-1.123 3.337-1.378 2.264-0.765 4.967-1.33 8.9-1.378 3.449-0.041 4.461 0.31 8.344 0.689 4.789 0.469 8.338 0.262 12.794 0 4.606-0.269 8.049-0.772 12.237-1.378 3.872-0.565 3.649-0.641 8.344-1.378 3.721-0.586 9.378-1.399 16.131-2.068 4.055-0.4 6.080-0.6 8.9-0.689 3.009-0.096 3.438 0.034 9.456 0 5.724-0.034 5.596-0.152 7.231 0 3.944 0.358 8.344 1.378 8.344 1.378s-0.256 0.93-0.556 1.378c-0.312 0.469-0.923 0.613-1.669 0.689-1.279 0.124-1.919 0.186-2.781 0-3.165-0.696-12.749-1.289-16.131-1.378-2.253-0.062-0.617 0-10.569 0.689-9.295 0.648-8.483 0.551-10.012 0.689-1.619 0.145-2.954 0.289-4.161 0.441-4.556 0.565-8.032 1.082-11.414 1.626-3.972 0.641-8.344 1.378-8.344 1.378-2.915 0.496-3.388 0.586-4.45 0.689-2.937 0.29-5.129 0.159-7.788 0 0 0-2.681-0.158-6.675-0.689-1.012-0.138-1.519-0.214-2.086-0.31-0.918-0.165-1.224-0.262-2.364-0.379-0.528-0.055-3.582-0.365-6.675 0-4.35 0.51-8.9 2.936-11.125 4.135-5.974 3.225-9.779 6.63-10.012 6.203z"></path>
<path fill="#fff" style="fill: var(--color1, #fff)" d="M15.102 24.874c0.428-1.061 1.407-3.143 3.337-4.824 1.691-1.468 3.299-1.923 3.894-2.068 4.050-0.965 7.192 1.571 7.787 2.068 1.747 1.468 2.842 3.363 2.781 3.446-0.050 0.062-0.868-0.972-2.225-2.068-0.356-0.289-1.797-1.44-3.337-2.068-3.827-1.551-7.454 0.496-7.788 0.689-2.481 1.447-3.86 3.708-4.45 4.824z"></path>
<path fill="#be7d00" style="fill: var(--color2, #be7d00)" d="M5.090 22.806c-0.022-0.2 1.552-0.655 1.669-0.689 1.758-0.503 2.041-0.172 2.781-0.689 0.217-0.152 0.701-0.793 1.669-2.068 0.795-1.054 1.046-1.434 1.112-1.378 0.095 0.083-0.478 0.951-1.112 2.757-0.373 1.061-0.562 1.861-1.113 2.068-0.245 0.089-0.462 0.027-0.556 0-1.697-0.476-4.417 0.269-4.45 0z"></path>
<path fill="#fff" style="fill: var(--color1, #fff)" d="M84.633 11.091c0.050-0.117 0.545 0.193 1.669 0.689 0.801 0.351 1.046 0.413 1.113 0.689 0.083 0.352-0.156 0.703-0.556 1.378-0.395 0.669-0.718 1.399-1.113 2.068-0.796 1.33-1.485 2.757-2.225 4.135s-1.113 2.068-1.113 2.068c-0.907 1.716-0.879 1.73-1.113 2.068-0.834 1.192-1.758 1.778-2.225 2.068-0.695 0.427-1.608 0.834-1.669 0.689-0.078-0.186 1.391-0.848 2.781-2.757 0.512-0.703 0.929-1.44 1.669-2.757 0.573-1.013 0.523-0.999 1.113-2.068 0.362-0.655 1.252-2.247 2.225-4.135 0.361-0.703 0.679-1.344 0.556-2.068-0.089-0.51-0.395-1.034-0.467-1.158-0.356-0.606-0.69-0.813-0.645-0.91z"></path>
<path fill="#fff" style="fill: var(--color1, #fff)" d="M76.845 24.184c0.011 0.090-4.55 0.641-11.125 2.068-1.446 0.317-3.543 0.793-6.675 1.378-1.274 0.241-1.797 0.324-3.894 0.689-1.702 0.296-1.474 0.262-3.894 0.689-2.82 0.496-2.931 0.503-3.894 0.689-0.228 0.041-0.1 0.021-3.337 0.689-1.513 0.31-3.337 0.689-3.337 0.689 0.962-0.71 1.163-1.123 1.113-1.378-0.061-0.317-0.556-0.689-0.556-0.689-0.528 0.041 6.948-0.648 7.231-0.689 0.133-0.021 0.311-0.048 0.673-0.103 0.834-0.124 1.53-0.241 3.777-0.586 1.485-0.227 2.965-0.462 4.45-0.689 5.93-0.917 8.9-1.378 8.9-1.378 5.084-0.779 10.558-1.482 10.569-1.378z"></path>
<path fill="#fff" style="fill: var(--color1, #fff)" d="M34.015 12.469c-0.106-0.407 1.329-1.42 5.006-3.446 5.818-3.212 8.727-4.811 12.794-6.203 6.731-2.295 12.082-2.681 13.35-2.757 4.511-0.276 5.635 0.331 17.8 2.068 11.075 1.585 16.131 1.937 16.131 2.757 0 0.538-2.781 1.048-8.344 2.068-3.855 0.71-4.856 0.717-5.562 0.689-3.593-0.145-6.208-1.558-7.231-2.068-6.046-2.991-14.679-2.991-20.025-2.068-7.621 1.316-16.888 5.948-18.912 7.581-0.128 0.103-1.207 0.986-2.781 1.378-0.829 0.207-2.13 0.358-2.225 0z"></path>
<path fill="#be7d00" style="fill: var(--color2, #be7d00)" d="M113.558 12.469c0.011-0.034 0.022-0.062 0.033-0.076 0 0 0.006-0.007 0.006-0.014 0.039-0.055 1.913 0.737 2.742 0.090 0.334-0.262 0.467-0.744 0.556-0.689 0.111 0.069-0.245 0.793 0 1.378 0.184 0.434 0.573 0.476 0.556 0.689-0.022 0.324-0.907 0.179-1.113 0.689-0.189 0.469 0.356 1.061 1.113 2.757 0.039 0.090 0.211 0.517 0.556 1.378 0.906 2.267 1.869 4.666 1.668 4.824-0.35 0.276-3.059-6.458-5.562-9.649-0.156-0.2-0.712-0.896-0.556-1.378z"></path>
<path fill="#fff" style="fill: var(--color1, #fff)" d="M45.139 13.847c-0.334-1.399-0.189-1.888 0-2.067 0.217-0.207 0.456-0.014 1.113 0 0.095 0 1.463 0.007 1.669-0.689 0.156-0.524-0.423-1.213-0.556-1.378-0.106-0.131-0.512-0.6-1.112-0.689-0.501-0.076-0.723 0.179-1.669 0.689-1.502 0.813-1.952 0.731-2.225 1.378-0.2 0.476-0.234 1.137 0 1.378 0.223 0.234 0.495-0.124 1.113 0 0.506 0.103 0.879 0.462 1.113 0.689 0.256 0.248 0.439 0.503 0.556 0.689z"></path>
<path fill="#fff" style="fill: var(--color1, #fff)" d="M92.282 23.131c0.428-1.061 1.407-3.143 3.337-4.824 1.691-1.468 3.299-1.923 3.894-2.068 4.050-0.965 7.192 1.571 7.787 2.068 1.747 1.468 2.842 3.363 2.781 3.446-0.050 0.062-0.868-0.972-2.225-2.068-0.356-0.289-1.797-1.44-3.338-2.068-3.827-1.551-7.454 0.496-7.787 0.689-2.475 1.447-3.86 3.708-4.45 4.824z"></path>
</symbol>
</defs>
</svg>
